HIERARCHY
ROOT Hips
{
	OFFSET 0.000000 97.167313 0.000000
	CHANNELS 6 Xposition Yposition Zposition Xrotation Yrotation Zrotation
	JOINT Spine
	{
		OFFSET 0.000000 13.784798 0.064400
		CHANNELS 3 Xrotation Yrotation Zrotation
		JOINT Spine1
		{
			OFFSET 0.000000 12.037903 0.404700
			CHANNELS 3 Xrotation Yrotation Zrotation
			JOINT Spine2
			{
				OFFSET 0.000000 17.795601 0.420200
				CHANNELS 3 Xrotation Yrotation Zrotation
				JOINT Neck
				{
					OFFSET 0.000000 39.131302 11.954600
					CHANNELS 3 Xrotation Yrotation Zrotation
					JOINT Head
					{
						OFFSET 0.000000 14.456192 15.627699
						CHANNELS 3 Xrotation Yrotation Zrotation
						JOINT HeadTop_End
						{
							OFFSET 0.000000 15.703506 7.603401
							CHANNELS 3 Xrotation Yrotation Zrotation
							End Site
							{
								OFFSET 0.000000 17.447403 0.000000
							}
						}
					}
				}
				JOINT LeftShoulder
				{
					OFFSET 17.399500 24.608795 1.168800
					CHANNELS 3 Xrotation Yrotation Zrotation
					JOINT LeftArm
					{
						OFFSET 18.980635 5.765305 1.818600
						CHANNELS 3 Xrotation Yrotation Zrotation
						JOINT LeftForeArm
						{
							OFFSET 49.290169 0.000000 0.000000
							CHANNELS 3 Xrotation Yrotation Zrotation
							JOINT LeftHand
							{
								OFFSET 31.562012 0.000000 0.000000
								CHANNELS 3 Xrotation Yrotation Zrotation
								JOINT LeftHandThumb1
								{
									OFFSET 6.133995 -4.388519 7.076070
									CHANNELS 3 Xrotation Yrotation Zrotation
									JOINT LeftHandThumb2
									{
										OFFSET 6.037666 -3.485840 3.485847
										CHANNELS 3 Xrotation Yrotation Zrotation
										JOINT LeftHandThumb3
										{
											OFFSET 6.496506 -3.750763 3.750761
											CHANNELS 3 Xrotation Yrotation Zrotation
											JOINT LeftHandThumb4
											{
												OFFSET 5.616882 -3.242905 3.242910
												CHANNELS 3 Xrotation Yrotation Zrotation
												End Site
												{
													OFFSET -1.254608 7.132141 0.375429
												}
											}
										}
									}
								}
								JOINT LeftHandPinky1
								{
									OFFSET 18.920792 -0.453171 -11.426712
									CHANNELS 3 Xrotation Yrotation Zrotation
									JOINT LeftHandPinky2
									{
										OFFSET 4.919586 0.000000 0.000000
										CHANNELS 3 Xrotation Yrotation Zrotation
										JOINT LeftHandPinky3
										{
											OFFSET 5.233047 0.000000 0.000000
											CHANNELS 3 Xrotation Yrotation Zrotation
											JOINT LeftHandPinky4
											{
												OFFSET 5.571716 0.000000 0.000000
												CHANNELS 3 Xrotation Yrotation Zrotation
												End Site
												{
													OFFSET -3.459808 4.342407 -0.466164
												}
											}
										}
									}
								}
								JOINT LeftHandRing1
								{
									OFFSET 22.726120 -0.094986 -6.500475
									CHANNELS 3 Xrotation Yrotation Zrotation
									JOINT LeftHandRing2
									{
										OFFSET 6.408615 0.000000 0.000000
										CHANNELS 3 Xrotation Yrotation Zrotation
										JOINT LeftHandRing3
										{
											OFFSET 6.150223 0.000000 0.000000
											CHANNELS 3 Xrotation Yrotation Zrotation
											JOINT LeftHandRing4
											{
												OFFSET 6.145386 0.000000 0.000000
												CHANNELS 3 Xrotation Yrotation Zrotation
												End Site
												{
													OFFSET -3.671402 4.923981 -0.202372
												}
											}
										}
									}
								}
								JOINT LeftHandMiddle1
								{
									OFFSET 23.373947 0.000000 0.000001
									CHANNELS 3 Xrotation Yrotation Zrotation
									JOINT LeftHandMiddle2
									{
										OFFSET 6.996567 0.000000 0.000000
										CHANNELS 3 Xrotation Yrotation Zrotation
										JOINT LeftHandMiddle3
										{
											OFFSET 7.015945 0.000000 0.000000
											CHANNELS 3 Xrotation Yrotation Zrotation
											JOINT LeftHandMiddle4
											{
												OFFSET 7.721573 0.000000 0.000000
												CHANNELS 3 Xrotation Yrotation Zrotation
												End Site
												{
													OFFSET -4.651108 6.158463 0.251582
												}
											}
										}
									}
								}
								JOINT LeftHandIndex1
								{
									OFFSET 21.310577 -0.490082 6.209344
									CHANNELS 3 Xrotation Yrotation Zrotation
									JOINT LeftHandIndex2
									{
										OFFSET 7.536453 0.000000 0.000000
										CHANNELS 3 Xrotation Yrotation Zrotation
										JOINT LeftHandIndex3
										{
											OFFSET 7.512344 0.000000 0.000000
											CHANNELS 3 Xrotation Yrotation Zrotation
											JOINT LeftHandIndex4
											{
												OFFSET 10.212402 0.000000 0.000001
												CHANNELS 3 Xrotation Yrotation Zrotation
												End Site
												{
													OFFSET -5.180801 8.690506 1.388433
												}
											}
										}
									}
								}
							}
						}
					}
				}
				JOINT RightShoulder
				{
					OFFSET -17.399500 24.608795 1.168800
					CHANNELS 3 Xrotation Yrotation Zrotation
					JOINT RightArm
					{
						OFFSET -18.980635 5.765305 1.818600
						CHANNELS 3 Xrotation Yrotation Zrotation
						JOINT RightForeArm
						{
							OFFSET -49.290169 0.000000 0.000000
							CHANNELS 3 Xrotation Yrotation Zrotation
							JOINT RightHand
							{
								OFFSET -31.562012 0.000000 0.000000
								CHANNELS 3 Xrotation Yrotation Zrotation
								JOINT RightHandThumb1
								{
									OFFSET -6.133995 -4.388519 7.076070
									CHANNELS 3 Xrotation Yrotation Zrotation
									JOINT RightHandThumb2
									{
										OFFSET -6.037666 -3.485840 3.485847
										CHANNELS 3 Xrotation Yrotation Zrotation
										JOINT RightHandThumb3
										{
											OFFSET -6.496506 -3.750763 3.750761
											CHANNELS 3 Xrotation Yrotation Zrotation
											JOINT RightHandThumb4
											{
												OFFSET -5.616882 -3.242905 3.242910
												CHANNELS 3 Xrotation Yrotation Zrotation
												End Site
												{
													OFFSET 1.254608 7.132141 0.375429
												}
											}
										}
									}
								}
								JOINT RightHandIndex1
								{
									OFFSET -21.310577 -0.490082 6.209344
									CHANNELS 3 Xrotation Yrotation Zrotation
									JOINT RightHandIndex2
									{
										OFFSET -7.536453 0.000000 0.000000
										CHANNELS 3 Xrotation Yrotation Zrotation
										JOINT RightHandIndex3
										{
											OFFSET -7.512344 0.000000 0.000000
											CHANNELS 3 Xrotation Yrotation Zrotation
											JOINT RightHandIndex4
											{
												OFFSET -10.212402 0.000000 0.000001
												CHANNELS 3 Xrotation Yrotation Zrotation
												End Site
												{
													OFFSET 5.180801 8.690506 1.388433
												}
											}
										}
									}
								}
								JOINT RightHandMiddle1
								{
									OFFSET -23.373947 0.000000 0.000001
									CHANNELS 3 Xrotation Yrotation Zrotation
									JOINT RightHandMiddle2
									{
										OFFSET -6.996567 0.000000 0.000000
										CHANNELS 3 Xrotation Yrotation Zrotation
										JOINT RightHandMiddle3
										{
											OFFSET -7.015945 0.000000 0.000000
											CHANNELS 3 Xrotation Yrotation Zrotation
											JOINT RightHandMiddle4
											{
												OFFSET -7.721573 0.000000 0.000000
												CHANNELS 3 Xrotation Yrotation Zrotation
												End Site
												{
													OFFSET 4.651108 6.158463 0.251582
												}
											}
										}
									}
								}
								JOINT RightHandRing1
								{
									OFFSET -22.726120 -0.094986 -6.500475
									CHANNELS 3 Xrotation Yrotation Zrotation
									JOINT RightHandRing2
									{
										OFFSET -6.408615 0.000000 0.000000
										CHANNELS 3 Xrotation Yrotation Zrotation
										JOINT RightHandRing3
										{
											OFFSET -6.150223 0.000000 0.000000
											CHANNELS 3 Xrotation Yrotation Zrotation
											JOINT RightHandRing4
											{
												OFFSET -6.145386 0.000000 0.000000
												CHANNELS 3 Xrotation Yrotation Zrotation
												End Site
												{
													OFFSET 3.671402 4.923981 -0.202372
												}
											}
										}
									}
								}
								JOINT RightHandPinky1
								{
									OFFSET -18.920792 -0.453171 -11.426712
									CHANNELS 3 Xrotation Yrotation Zrotation
									JOINT RightHandPinky2
									{
										OFFSET -4.919586 0.000000 0.000000
										CHANNELS 3 Xrotation Yrotation Zrotation
										JOINT RightHandPinky3
										{
											OFFSET -5.233047 0.000000 0.000000
											CHANNELS 3 Xrotation Yrotation Zrotation
											JOINT RightHandPinky4
											{
												OFFSET -5.571716 0.000000 0.000000
												CHANNELS 3 Xrotation Yrotation Zrotation
												End Site
												{
													OFFSET 3.459808 4.342407 -0.466164
												}
											}
										}
									}
								}
							}
						}
					}
				}
			}
		}
	}
	JOINT LeftUpLeg
	{
		OFFSET 19.899099 -7.885101 -3.429500
		CHANNELS 3 Xrotation Yrotation Zrotation
		JOINT LeftLeg
		{
			OFFSET 1.745560 -36.997807 10.304700
			CHANNELS 3 Xrotation Yrotation Zrotation
			JOINT LeftFoot
			{
				OFFSET -1.745558 -29.803308 -13.615400
				CHANNELS 3 Xrotation Yrotation Zrotation
				JOINT LeftToeBase
				{
					OFFSET 1.181900 -18.539904 15.226099
					CHANNELS 3 Xrotation Yrotation Zrotation
					JOINT LeftToe_End
					{
						OFFSET -0.863701 1.402801 16.534700
						CHANNELS 3 Xrotation Yrotation Zrotation
						End Site
						{
							OFFSET 0.000000 16.616566 0.000000
						}
					}
				}
			}
		}
	}
	JOINT RightUpLeg
	{
		OFFSET -19.899099 -7.885101 -3.429500
		CHANNELS 3 Xrotation Yrotation Zrotation
		JOINT RightLeg
		{
			OFFSET -1.745560 -36.997807 10.304700
			CHANNELS 3 Xrotation Yrotation Zrotation
			JOINT RightFoot
			{
				OFFSET 1.745558 -29.803308 -13.615400
				CHANNELS 3 Xrotation Yrotation Zrotation
				JOINT RightToeBase
				{
					OFFSET -1.181900 -18.539904 15.226099
					CHANNELS 3 Xrotation Yrotation Zrotation
					JOINT RightToe_End
					{
						OFFSET 0.863701 1.402801 16.534700
						CHANNELS 3 Xrotation Yrotation Zrotation
						End Site
						{
							OFFSET 0.000000 16.616566 0.000000
						}
					}
				}
			}
		}
	}
}
MOTION
Frames: 4
Frame Time: 0.033333
-6.179868 78.574997 7.828533 -55.636788 -99.683653 -58.646340 4.906536 -2.543123 -1.507765 4.687683 -2.194982 -0.927412 4.706082 -2.149562 -0.937143 -6.725776 11.570993 1.552916 -0.660829 69.828760 7.758347 -0.000000 0.000000 -0.000000 2.230709 -16.801229 4.167641 -58.156800 -59.963112 -60.243614 0.000145 -91.089677 0.000320 -3.026408 0.357624 38.984391 2.333964 -4.852081 -3.963517 13.533817 36.265914 -6.789661 18.237367 69.607646 3.188463 -0.000001 0.000002 -0.000001 2.878032 7.353349 -58.659693 3.100880 5.166423 -61.922242 2.817860 5.005809 -58.730556 0.000000 0.000001 -0.000000 3.051710 7.454224 -60.629738 5.249919 5.820194 -84.092797 2.817866 5.005791 -58.730556 -0.000000 0.000000 0.000003 2.878029 7.353364 -58.659693 6.420564 5.823401 -95.595246 1.278817 3.654820 -38.558754 0.000001 0.000001 0.000004 2.878033 7.353352 -58.659686 6.385710 5.826673 -95.251837 2.817832 5.005785 -58.730563 -0.000000 0.000001 0.000001 2.281033 11.510033 -13.919656 -36.047454 -10.832345 13.739501 65.054786 147.765105 -39.644149 -3.855556 35.184948 -7.174483 2.454511 6.926590 5.617169 7.810734 -26.809469 -3.040596 18.936160 -62.858723 1.747722 0.000002 -0.000001 0.000001 2.770845 -6.512074 65.405379 4.589364 -4.656694 89.164698 1.495828 -3.421529 47.217525 -0.000000 -0.000001 -0.000001 2.634481 -6.539968 74.809238 5.688688 -4.541760 102.810268 1.460398 -3.388488 46.621102 -0.000001 -0.000002 -0.000009 3.122536 -6.655071 70.080903 5.298685 -4.612866 97.926294 2.043369 -3.855864 55.828966 0.000001 0.000001 -0.000005 4.911932 -9.704387 53.806215 4.184468 -4.633168 84.168018 1.827818 -3.700703 52.558538 0.000000 -0.000004 0.000002 -40.341840 7.625427 31.685248 48.134737 -11.186089 -1.941537 -15.129905 4.153374 -14.649057 -0.804052 -0.000037 0.013968 -0.000000 0.000000 -0.000000 -38.463862 -1.510489 -20.792824 42.914270 1.669844 0.654671 -8.738787 -4.493434 18.480728 0.180572 -0.000002 -0.000001 -0.000000 0.000000 -0.000000 
-6.139402 78.597534 7.540769 -57.379354 -99.527147 -60.482411 4.913771 -2.513899 -1.525591 4.691756 -2.173254 -0.963339 4.710386 -2.126719 -0.973167 -6.702199 11.549518 1.549896 -0.664254 69.731737 7.782982 -0.000000 0.000000 0.000002 2.221508 -16.823099 4.068707 -57.702886 -59.993021 -60.012392 -0.000753 -91.176550 -0.000905 -3.326355 0.499758 38.959245 2.333958 -4.852079 -3.963518 13.533814 36.265914 -6.789661 18.237346 69.607646 3.188463 0.000001 -0.000000 -0.000002 2.878026 7.353355 -58.659693 3.100869 5.166420 -61.922242 2.817860 5.005811 -58.730556 0.000002 -0.000004 -0.000005 3.051708 7.454228 -60.629738 5.249922 5.820195 -84.092804 2.817863 5.005790 -58.730556 -0.000002 0.000004 0.000005 2.878023 7.353373 -58.659686 6.420555 5.823398 -95.595246 1.278818 3.654815 -38.558754 -0.000002 0.000002 0.000004 2.878028 7.353354 -58.659700 6.385705 5.826671 -95.251844 2.817832 5.005785 -58.730556 -0.000002 0.000003 0.000002 2.283872 11.529204 -13.905831 -35.603987 -10.713671 13.805542 65.136044 147.882256 -39.758115 -3.825761 35.107176 -7.273731 2.454514 6.926586 5.617167 7.810736 -26.809461 -3.040596 18.936162 -62.858723 1.747730 -0.000001 0.000000 0.000001 2.770843 -6.512077 65.405372 4.589362 -4.656698 89.164691 1.495825 -3.421531 47.217525 -0.000000 -0.000003 -0.000002 2.634477 -6.539971 74.809245 5.688692 -4.541762 102.810261 1.460400 -3.388486 46.621099 -0.000002 0.000001 -0.000004 3.122530 -6.655072 70.080903 5.298687 -4.612866 97.926287 2.043368 -3.855867 55.828966 -0.000004 -0.000000 -0.000003 4.911928 -9.704387 53.806219 4.184464 -4.633167 84.168025 1.827814 -3.700703 52.558538 0.000002 0.000000 0.000004 -40.575634 7.392988 31.796259 47.898662 -11.355697 -1.811531 -14.750518 4.112440 -14.770586 -0.751076 0.000233 -0.075832 0.000000 0.000001 -0.000000 -38.309520 -1.623821 -20.646564 43.072167 1.473113 0.822243 -9.011443 -4.524946 18.320422 0.161901 -0.000017 -0.000002 -0.000000 -0.000001 0.000000 
-6.094118 78.643333 7.189463 -59.284990 -99.368952 -62.457340 4.920057 -2.502831 -1.534713 4.696143 -2.167785 -0.990108 4.715179 -2.119883 -1.000184 -6.672267 11.525579 1.533172 -0.530358 69.605092 7.681895 -0.000000 0.000001 -0.000000 2.212306 -16.781771 4.036718 -57.465667 -59.960885 -60.002618 0.000697 -91.232770 0.000664 -3.571077 0.639091 38.923612 2.333960 -4.852077 -3.963513 13.533815 36.265904 -6.789664 18.237356 69.607646 3.188460 0.000001 0.000004 -0.000002 2.878028 7.353353 -58.659693 3.100872 5.166418 -61.922249 2.817863 5.005806 -58.730556 -0.000001 0.000002 0.000001 3.051708 7.454230 -60.629738 5.249916 5.820197 -84.092804 2.817867 5.005787 -58.730563 -0.000003 0.000000 0.000002 2.878026 7.353370 -58.659686 6.420562 5.823398 -95.595246 1.278820 3.654818 -38.558747 -0.000001 -0.000002 0.000004 2.878033 7.353350 -58.659700 6.385708 5.826674 -95.251851 2.817833 5.005788 -58.730556 0.000001 0.000002 -0.000003 2.286237 11.538734 -13.913236 -35.258772 -10.549908 13.867128 65.300802 147.992454 -39.948270 -3.814412 35.049526 -7.308273 2.454512 6.926587 5.617166 7.810735 -26.809466 -3.040591 18.936167 -62.858723 1.747715 0.000002 0.000001 -0.000000 2.770841 -6.512075 65.405379 4.589356 -4.656695 89.164691 1.495829 -3.421534 47.217521 -0.000002 0.000000 0.000002 2.634478 -6.539970 74.809238 5.688690 -4.541760 102.810268 1.460401 -3.388486 46.621095 -0.000001 -0.000001 -0.000001 3.122535 -6.655068 70.080903 5.298687 -4.612866 97.926294 2.043371 -3.855865 55.828962 0.000002 -0.000002 -0.000007 4.911925 -9.704389 53.806215 4.184463 -4.633170 84.168018 1.827816 -3.700702 52.558534 0.000005 -0.000000 0.000011 -40.769993 7.168482 31.903032 47.538089 -11.520662 -1.669259 -14.284637 4.070236 -14.950388 -0.692200 0.000504 -0.172665 0.000000 -0.000001 -0.000000 -38.147296 -1.728026 -20.459304 43.255731 1.221133 0.984578 -9.303359 -4.552136 18.113047 0.132320 0.000021 0.000002 -0.000000 -0.000001 -0.000000 
-6.048393 78.693344 6.793128 -61.299069 -99.212958 -64.507093 4.922995 -2.510374 -1.538090 4.698539 -2.177958 -1.006562 4.718072 -2.128915 -1.016905 -6.631717 11.498873 1.509367 -0.222313 69.460223 7.450904 0.000000 -0.000001 0.000001 2.207219 -16.746734 4.032091 -57.334964 -59.882140 -60.059998 -0.000338 -91.276544 -0.000217 -3.771955 0.795928 38.886248 2.333967 -4.852074 -3.963516 13.533816 36.265907 -6.789663 18.237348 69.607646 3.188464 -0.000002 0.000001 0.000001 2.878029 7.353353 -58.659693 3.100874 5.166417 -61.922242 2.817858 5.005804 -58.730556 0.000001 0.000004 -0.000002 3.051710 7.454229 -60.629738 5.249917 5.820195 -84.092804 2.817863 5.005784 -58.730570 -0.000003 0.000003 0.000007 2.878025 7.353365 -58.659686 6.420558 5.823401 -95.595246 1.278816 3.654821 -38.558757 -0.000001 0.000001 0.000007 2.878031 7.353355 -58.659693 6.385709 5.826672 -95.251844 2.817830 5.005787 -58.730563 -0.000002 0.000005 0.000002 2.284763 11.520891 -13.945600 -35.008780 -10.351914 13.936398 65.531929 148.094088 -40.202685 -3.821685 35.013660 -7.271728 2.454515 6.926594 5.617168 7.810738 -26.809469 -3.040593 18.936174 -62.858716 1.747722 0.000002 -0.000001 0.000002 2.770843 -6.512075 65.405379 4.589358 -4.656695 89.164691 1.495826 -3.421532 47.217525 -0.000000 -0.000003 0.000003 2.634478 -6.539966 74.809238 5.688689 -4.541758 102.810268 1.460401 -3.388487 46.621099 -0.000001 0.000001 -0.000004 3.122531 -6.655069 70.080903 5.298686 -4.612864 97.926294 2.043374 -3.855861 55.828966 0.000001 -0.000001 -0.000002 4.911923 -9.704386 53.806222 4.184460 -4.633166 84.168018 1.827817 -3.700707 52.558534 0.000002 -0.000002 0.000005 -40.921613 6.953873 31.995321 47.102675 -11.676437 -1.523140 -13.781601 4.030829 -15.174954 -0.619797 0.000561 -0.273365 0.000000 0.000000 -0.000000 -37.991708 -1.822769 -20.286758 43.491605 0.922772 1.161048 -9.610771 -4.584394 17.911275 0.089906 0.000005 -0.000001 0.000000 0.000000 0.000000 
